<svg xmlns="http://www.w3.org/2000/svg" width="147" height="147" fill-rule="evenodd" clip-rule="evenodd" image-rendering="optimizeQuality" shape-rendering="geometricPrecision" text-rendering="geometricPrecision" viewBox="0 0 147 147" id="male-symbol">
  <path d="M93 17c-5,0 -9,-4 -9,-8 0,-5 4,-9 9,-9l45 0c2,0 3,0 4,1l0 0 0 0 0 0 0 0 1 0 0 0 0 0 0 0 0 0 0 0 0 0 0 0 0 0c0,1 0,1 0,1l0 0 0 0 1 0 0 0c0,0 0,0 0,0l0 0 0 0c0,0 0,1 1,1l0 0 0 0c0,0 0,0 0,0l0 0 0 0 0 1 0 0 1 0 0 0 0 0 0 0 0 0 0 0 0 0 0 0 0 0 0 1 0 0 0 0 0 0 0 0c1,1 1,2 1,4l0 45c0,5 -4,9 -9,9 -4,0 -8,-4 -8,-9l0 -24 -34 33c6,9 10,19 10,31 0,15 -6,28 -15,37 -10,10 -23,16 -38,16 -15,0 -28,-6 -37,-16 -10,-9 -16,-22 -16,-37 0,-15 6,-28 16,-38 9,-9 22,-15 37,-15 12,0 22,4 31,10l33 -34 -24 0 0 0zm-15 52c-6,-7 -15,-11 -25,-11 -10,0 -19,4 -25,11 -7,6 -11,15 -11,25 0,10 4,19 11,25 6,7 15,11 25,11 10,0 19,-4 25,-11 7,-6 11,-15 11,-25 0,-10 -4,-19 -11,-25z"></path>
</svg>
