<svg xmlns="http://www.w3.org/2000/svg" fill="none" viewBox="0 0 24 24" id="FemaleGender">
  <path fill="#000000" fill-rule="evenodd" d="M11.25 13.701A5.754 5.754 0 0 1 6.25 8 5.752 5.752 0 0 1 12 2.25 5.752 5.752 0 0 1 17.75 8a5.754 5.754 0 0 1-5 5.701v3.049h2.75a.75.75 0 0 1 0 1.5h-2.75V21a.75.75 0 0 1-1.5 0v-2.75H8.5a.75.75 0 0 1 0-1.5h2.75v-3.049ZM12 3.75A4.252 4.252 0 0 1 16.25 8 4.252 4.252 0 0 1 12 12.25 4.252 4.252 0 0 1 7.75 8 4.252 4.252 0 0 1 12 3.75Z" clip-rule="evenodd" class="color14171a svgShape"></path>
</svg>
