<svg xmlns="http://www.w3.org/2000/svg" viewBox="0 0 48 48" id="lose-weight">
  <path fill-rule="evenodd" d="M38,18c-4.41,0-8-3.59-8-8h-1v2c0,2.12-.84,4.16-2.34,5.66-1.5,1.5-3.53,2.34-5.66,2.34s-4.16-.84-5.66-2.34c-1.5-1.5-2.34-3.53-2.34-5.66v-2h-2.11c-4.87,0-6.89,4.28-6.89,7.74,0,4.08,2.17,17.98,3.04,23.32,.27,1.69,1.73,2.94,3.45,2.94H31.52c1.72,0,3.18-1.25,3.45-2.95,.84-5.23,2.95-18.67,3.03-23.05h0Zm-18,5v16c0,.55,.45,1,1,1s1-.45,1-1v-16c0-.55-.45-1-1-1s-1,.45-1,1h0Zm7.26,17c1.02,0,2.04-.43,2.97-1.3,1.18-1.09,2.24-2.93,2.99-5.33,.79-2.51,1.73-5.4,1.48-7.53-.21-1.76-1.1-3.1-3.19-3.62-1.84-.46-3.17-.18-4.16,.49-.97,.65-1.63,1.72-2.07,3.05-.51,1.52-.74,3.39-1,5.19-.36,2.52-.4,5.07,.16,6.71,.5,1.49,1.45,2.34,2.83,2.34h0Zm-12.59,0c1.42,0,2.38-.85,2.89-2.33,.57-1.64,.53-4.2,.16-6.72-.27-1.8-.51-3.68-1.03-5.19-.46-1.33-1.14-2.4-2.13-3.05-1.01-.66-2.37-.93-4.24-.48-1.07,.26-1.82,.74-2.34,1.35-.76,.89-1.04,2.1-.96,3.5,.1,1.93,.89,4.25,1.55,6.31,.78,2.41,1.87,4.24,3.08,5.33,.95,.85,1.98,1.29,3.02,1.29h0Zm12.59-2c-.51,0-.75-.43-.94-.98-.48-1.41-.38-3.62-.07-5.78,.24-1.68,.45-3.43,.92-4.84,.29-.87,.66-1.61,1.29-2.03,.61-.41,1.43-.48,2.56-.2,.55,.14,.96,.36,1.23,.69,.44,.53,.52,1.28,.48,2.11-.09,1.78-.83,3.91-1.42,5.8-.53,1.69-1.21,3.06-2,4-.63,.76-1.31,1.23-2.05,1.23h0Zm-12.59,0c-.76,0-1.48-.47-2.14-1.24-.81-.94-1.51-2.31-2.06-3.99-.61-1.9-1.37-4.02-1.46-5.8-.04-.83,.04-1.57,.49-2.1,.28-.33,.7-.56,1.28-.7,1.18-.28,2.04-.21,2.68,.21,.65,.43,1.04,1.16,1.34,2.03,.49,1.41,.69,3.16,.94,4.84,.32,2.16,.42,4.36-.07,5.77-.19,.56-.46,.99-1,.99h0Zm5.33-20.08v-.5l1-1,1,1v.5c-.33,.06-.66,.08-1,.08s-.67-.03-1-.08h0Zm7-7.92v2c0,1.59-.63,3.12-1.76,4.24-.37,.37-.79,.69-1.24,.95v-.2c0-.27-.11-.52-.29-.71l-2-2c-.39-.39-1.02-.39-1.42,0l-2,2c-.19,.19-.29,.44-.29,.71v.2c-.45-.26-.87-.58-1.24-.95-1.13-1.12-1.76-2.65-1.76-4.24v-2h12Zm11-6c-3.31,0-6,2.69-6,6s2.69,6,6,6,6-2.69,6-6-2.69-6-6-6h0Zm1,6.59v-3.59c0-.55-.45-1-1-1s-1,.45-1,1v3.59l-.29-.29c-.39-.39-1.02-.39-1.41,0-.39,.39-.39,1.02,0,1.42l2,2c.39,.39,1.02,.39,1.41,0l2-2c.39-.39,.39-1.02,0-1.42-.39-.39-1.02-.39-1.41,0l-.29,.29h0Z"></path>
</svg>
