<svg xmlns="http://www.w3.org/2000/svg" fill="none" viewBox="0 0 14 14" id="ToiletSign">
  <path fill="#000000" fill-rule="evenodd" d="M7 1a3 3 0 1 0 0 6 3 3 0 0 0 0-6M3 4a4 4 0 1 1 8 0 4 4 0 0 1-8 0" clip-rule="evenodd" class="color000001 svgShape"></path>
  <path fill="#000000" fill-rule="evenodd" d="M7 7a.5.5 0 0 1 .5.5v6a.5.5 0 0 1-1 0v-6A.5.5 0 0 1 7 7" clip-rule="evenodd" class="color000001 svgShape"></path>
  <path fill="#000000" fill-rule="evenodd" d="M4.5 11a.5.5 0 0 1 .5-.5h4a.5.5 0 0 1 0 1H5a.5.5 0 0 1-.5-.5" clip-rule="evenodd" class="color000001 svgShape"></path>
</svg>
