<svg xmlns="http://www.w3.org/2000/svg" viewBox="0 0 151.94 150.9" id="butch">
  <path d="M55.06 150.9A55 55 0 0 0 99.94 64l35-35v66.84a8.5 8.5 0 0 0 17 0V7.66l-.06-.36c0-.15 0-.31-.07-.46a2.73 2.73 0 0 0-.1-.41c0-.14-.06-.27-.1-.4s-.09-.26-.14-.39-.09-.26-.14-.39-.11-.24-.16-.36l-.2-.4-.19-.33c-.08-.13-.15-.26-.24-.38a3.79 3.79 0 0 0-.25-.35l-.29-.32c-.17-.2-.34-.39-.52-.58v-.05c-.19-.18-.37-.35-.57-.51a3.09 3.09 0 0 0-.31-.23c-.12-.09-.24-.19-.36-.27l-.37-.22-.43-.25-.37-.18-.38-.17-.36-.13a3.12 3.12 0 0 0-.43-.15 3.58 3.58 0 0 0-.35-.09c-.15 0-.3-.09-.46-.12L144.7.1l-.43-.1H55.06a8.5 8.5 0 0 0 0 17h67.86L88.09 51.83a55 55 0 1 0-33 99.07Zm0-93.12A38.06 38.06 0 1 1 17 95.84a38.1 38.1 0 0 1 38.06-38.06Z"></path>
</svg>
