<svg xmlns="http://www.w3.org/2000/svg" xml:space="preserve" id="weight" x="0" y="0" style="enable-background:new 0 0 64 64" version="1.1" viewBox="0 0 64 64">
  <g>
    <g>
      <g>
        <g>
          <path d="m50.4 24.3-.1 2.5c-8.8.4-15.9 7.7-15.9 16.7 0 7.1 4.4 13.1 10.6 15.5-.9.5-2 .7-3.1.7H27.4V33.3c8-.8 14.3-7.6 14.3-15.8 0-.1 0-.2 0-.3h1.9C47.6 17.1 50.6 20.4 50.4 24.3zM9.7 17.5c0-.1 0-.2 0-.3H7.8c-3.9 0-7 3.3-6.7 7.1l1.8 29.1c.2 3.5 3.2 6.3 6.7 6.3h14.4V33.3C16.1 32.6 9.7 25.7 9.7 17.5z" style="fill:#343433"></path>
        </g>
      </g>
      <g>
        <g>
          <g>
            <path d="M35.1,17c0,1.1-0.2,2.1-0.5,3.1l-0.1,0c0,0,0-0.1,0.1-0.4c0.1-0.3,0.2-0.6,0.3-1.1       c0.1-0.5,0.1-1.1,0.1-1.8c0-0.7-0.1-1.5-0.3-2.3c0-0.2-0.1-0.4-0.2-0.5c0,0,0,0,0,0C35,14.8,35.1,15.9,35.1,17z" style="fill:#343433"></path>
          </g>
          <g>
            <circle cx="34" cy="25.3" r="1.9" style="fill:#343433" transform="matrix(1 -.00432 .00432 1 -.109 .147)"></circle>
          </g>
          <g>
            <circle cx="28.7" cy="28.7" r="1.6" style="fill:#343433" transform="rotate(-59.874 28.714 28.677)"></circle>
          </g>
          <g>
            <circle cx="22.4" cy="28.9" r="1.4" style="fill:#343433" transform="rotate(-29.498 22.423 28.92)"></circle>
          </g>
          <g>
            <circle cx="17.2" cy="26.3" r=".9" style="fill:#343433" transform="matrix(.01533 -.9999 .9999 .01533 -9.334 43.081)"></circle>
          </g>
          <g>
            <path d="M39,17.4c0,1.3-0.2,2.6-0.6,3.8l-3.8-1.1c0.3-1,0.5-2,0.5-3.1c0-1.1-0.2-2.1-0.5-3.1       c-0.6-1.9-1.8-3.6-3.4-4.9c0,0-0.1-0.1-0.1-0.1c-0.7-0.5-1.5-1-2.4-1.3C28.2,7.3,27.6,7.1,27,7l-0.2,0l-0.2,0       c-0.1,0-0.3-0.1-0.4-0.1l-0.2,0c-0.1,0-0.1,0-0.2,0l-0.3,0l-0.1,0l-0.1,0l0,0l0,0h0c-1.2,0-2.4,0.1-3.6,0.5       c-1.2,0.4-2.2,0.9-3.2,1.7c-0.9,0.7-1.7,1.6-2.4,2.4c-0.2,0.2-0.3,0.5-0.4,0.7c-0.1,0.1-0.1,0.2-0.2,0.3       c-0.1,0.1-0.1,0.2-0.2,0.3c-0.2,0.5-0.4,0.9-0.6,1.4c-0.1,0.2-0.2,0.5-0.2,0.7c0,0.1-0.1,0.2-0.1,0.3c0,0.1,0,0.2-0.1,0.3       c0,0.1,0,0.1,0,0.2c0,0.1,0,0.1,0,0.2c0,0.1,0,0.2-0.1,0.3c0,0.2,0,0.4-0.1,0.6c0,0.2,0,0.4,0,0.6l0,0c0,0,0,0,0,0v0l0,0.1       c0,0,0,0.1,0,0.1c0,0.1,0,0.2,0,0.3c0,0.3,0,0.7,0,0.9c0.1,0.6,0.1,1,0.2,1.3c0,0.2,0.1,0.3,0.1,0.3c0,0.1,0,0.1,0,0.1       l-1.2,0.3c0,0,0,0,0-0.1c0-0.1-0.1-0.2-0.1-0.4c-0.1-0.2-0.1-0.4-0.2-0.7c-0.1-0.7-0.2-1.5-0.2-2.3c0-7.3,5.9-13.1,13.1-13.1       c3.3,0,6.3,1.2,8.6,3.2c1,0.9,1.9,1.9,2.6,3C38.2,12.5,39,14.9,39,17.4z" style="fill:#343433"></path>
          </g>
          <g>
            <path d="M31.9,13.7c-0.2-0.4-0.6-0.5-1-0.3c-0.4,0.2-0.9,0.5-1.3,0.7l-0.1,0.1c-0.7,0.4-1.3,0.8-2,1.2L26.4,16       c-0.7-0.3-1.6-0.2-2.3,0.2c-0.1,0.1-0.2,0.2-0.3,0.3c-0.8,0.8-0.9,2.1-0.3,3c0.4,0.7,1.2,1,2,1c0.3,0,0.7-0.1,1-0.2       c0.1-0.1,0.3-0.1,0.4-0.2c0.7-0.5,1.1-1.2,1-2c0.6-0.6,1.6-1.4,2.4-2.1l0.1-0.1c0.7-0.6,1.3-1.1,1.5-1.2       C32.1,14.5,32.1,14.1,31.9,13.7z" style="fill:#343433"></path>
          </g>
        </g>
      </g>
    </g>
    <path d="M62.5,40.6C60.9,34,54.4,30,47.8,31.4c-0.1,0-0.2,0-0.2,0.1c-0.8,0.2-1.7,0.5-2.5,0.9   c-0.6,0.3-1.1,0.6-1.6,0.9c-4.2,2.8-6.4,8.1-5.1,13.3c1.6,6.7,8.4,10.8,15,9.1C60.1,54,64.2,47.3,62.5,40.6z M60,44.8   c0,0.7-0.6,1.3-1.3,1.3H42.2c-0.7,0-1.3-0.6-1.3-1.3v-2.5c0-0.7,0.6-1.3,1.3-1.3h16.5c0.7,0,1.3,0.6,1.3,1.3V44.8z" style="fill:#343433"></path>
  </g>
</svg>
