<svg width="33" height="31" viewBox="0 0 33 31" fill="none" xmlns="http://www.w3.org/2000/svg">
<path d="M4.14182 12.9165C3.56309 12.9165 3.10548 12.4774 3.10548 11.9219V8.93819C3.10548 5.43777 6.0799 2.58319 9.72726 2.58319H12.8363C13.415 2.58319 13.8726 3.02236 13.8726 3.57777C13.8726 4.13319 13.415 4.57236 12.8363 4.57236H9.72726C7.21045 4.57236 5.17816 6.53569 5.17816 8.93819V11.9219C5.17816 12.4774 4.70709 12.9165 4.14182 12.9165Z" fill="#FFFDF9" fill-opacity="0.94"/>
<path d="M28.9871 12.9165C28.4219 12.9165 27.9508 12.4774 27.9508 11.9219V8.93819C27.9508 6.52277 25.905 4.57236 23.4017 4.57236H20.2927C19.714 4.57236 19.2563 4.12027 19.2563 3.57777C19.2563 3.03527 19.714 2.58319 20.2927 2.58319H23.4017C27.0491 2.58319 30.0235 5.43777 30.0235 8.93819V11.9219C30.0235 12.4774 29.5659 12.9165 28.9871 12.9165Z" fill="#FFFDF9" fill-opacity="0.94"/>
<path d="M23.4015 28.4166H21.5308C20.9655 28.4166 20.4944 27.9775 20.4944 27.422C20.4944 26.8795 20.952 26.4275 21.5308 26.4275H23.4015C25.9184 26.4275 27.9506 24.4641 27.9506 22.0616V20.2791C27.9506 19.7366 28.4083 19.2845 28.987 19.2845C29.5523 19.2845 30.0233 19.7237 30.0233 20.2791V22.0616C30.0233 25.562 27.0489 28.4166 23.4015 28.4166Z" fill="#FFFDF9" fill-opacity="0.94"/>
<path d="M12.8363 28.4165H9.72726C6.0799 28.4165 3.10548 25.5619 3.10548 22.0615V19.0778C3.10548 18.5224 3.56309 18.0832 4.14182 18.0832C4.72055 18.0832 5.17816 18.5224 5.17816 19.0778V22.0615C5.17816 24.4769 7.22391 26.4274 9.72726 26.4274H12.8363C13.4015 26.4274 13.8726 26.8665 13.8726 27.4219C13.8726 27.9774 13.415 28.4165 12.8363 28.4165Z" fill="#FFFDF9" fill-opacity="0.94"/>
<path d="M25.2587 14.5052H23.4283H9.70021H7.8698C7.29107 14.5052 6.83347 14.9573 6.83347 15.4998C6.83347 16.0423 7.29107 16.4944 7.8698 16.4944H9.70021H23.4283H25.2587C25.8374 16.4944 26.295 16.0423 26.295 15.4998C26.295 14.9573 25.8374 14.5052 25.2587 14.5052Z" fill="#FFFDF9" fill-opacity="0.94"/>
<path d="M9.70021 18.0058V18.4321C9.70021 20.5762 11.5037 22.3071 13.7379 22.3071H19.3906C21.6248 22.3071 23.4283 20.5762 23.4283 18.4321V18.0058C23.4283 17.8508 23.3072 17.7346 23.1457 17.7346H9.98285C9.82134 17.7346 9.70021 17.8508 9.70021 18.0058Z" fill="#FFFDF9" fill-opacity="0.94"/>
<path d="M9.70021 12.994V12.5677C9.70021 10.4236 11.5037 8.69275 13.7379 8.69275H19.3906C21.6248 8.69275 23.4283 10.4236 23.4283 12.5677V12.994C23.4283 13.149 23.3072 13.2652 23.1457 13.2652H9.98285C9.82134 13.2652 9.70021 13.149 9.70021 12.994Z" fill="#FFFDF9" fill-opacity="0.94"/>
</svg>
