<svg width="16" height="16" viewBox="0 0 16 16" fill="none" xmlns="http://www.w3.org/2000/svg">
<path fill-rule="evenodd" clip-rule="evenodd" d="M9.39946 1.59406C10.4138 0.579752 12.0583 0.579752 13.0726 1.59406C14.0869 2.60836 14.0869 4.25287 13.0726 5.26718L8.0099 10.3299C7.72457 10.6152 7.55032 10.7895 7.3561 10.941C7.12728 11.1194 6.8797 11.2725 6.61774 11.3973C6.39539 11.5033 6.16159 11.5812 5.77875 11.7088L3.99698 12.3027L3.5692 12.4453C3.1863 12.5729 2.76415 12.4733 2.47876 12.1879C2.19336 11.9025 2.0937 11.4803 2.22134 11.0974L2.95785 8.88789C3.08544 8.50505 3.16336 8.27124 3.26933 8.0489C3.39417 7.78693 3.54719 7.53935 3.72566 7.31053C3.87715 7.11631 4.05142 6.94206 4.33679 6.65672L9.39946 1.59406ZM3.97391 11.2563L3.41033 10.6927L3.89595 9.23588C4.03733 8.81172 4.09573 8.63925 4.17205 8.47912C4.26565 8.28272 4.38037 8.0971 4.51417 7.92555C4.62327 7.78567 4.75141 7.65631 5.06757 7.34016L8.99488 3.41284C9.15699 3.8195 9.43127 4.31032 9.89379 4.77284C10.3563 5.23536 10.8471 5.50964 11.2538 5.67175L7.32647 9.59907C7.01032 9.91522 6.88096 10.0434 6.74108 10.1525C6.56953 10.2863 6.38392 10.401 6.18752 10.4946C6.02738 10.5709 5.85492 10.6293 5.43076 10.7707L3.97391 11.2563ZM12.0506 4.87493C11.9681 4.85681 11.8648 4.82954 11.7475 4.78883C11.4248 4.67687 11.0003 4.46518 10.6009 4.06574C10.2014 3.66629 9.98976 3.24183 9.87781 2.91915C9.83709 2.8018 9.80982 2.69858 9.7917 2.61602L10.1066 2.30116C10.7303 1.67738 11.7417 1.67738 12.3655 2.30116C12.9893 2.92494 12.9893 3.93629 12.3655 4.56007L12.0506 4.87493ZM2.16664 14.6667C2.16664 14.3905 2.3905 14.1667 2.66664 14.1667H13.3333V15.1667H2.66664C2.3905 15.1667 2.16664 14.9428 2.16664 14.6667Z" fill="#1C274C"/>
</svg>
