<svg xmlns="http://www.w3.org/2000/svg" viewBox="0 0 32 32" id="Sex">
  <path d="M22.611 3.996v.002a.5.5 0 0 0-.111.984l2.695.723-5.47 3.156a5.01 5.01 0 0 0-6.557-1.408c-1.063.614-1.794 1.57-2.18 2.645-.32-.065-.65-.1-.988-.1-2.756 0-5 2.245-5 5a5.007 5.007 0 0 0 4.5 4.973v4.027h-2a.5.5 0 1 0 0 1h2v2.5a.5.5 0 1 0 1 0v-2.5h2a.5.5 0 1 0 0-1h-2v-4.027c1.95-.195 3.555-1.523 4.191-3.307 1.152.231 2.383.083 3.477-.549a5.012 5.012 0 0 0 2.059-6.386l5.472-3.16-.722 2.7a.5.5 0 1 0 .964.258l1.02-3.804a.5.5 0 0 0-.406-.69L22.76 4.016a.5.5 0 0 0-.149-.02zM15.95 7.791a3.99 3.99 0 0 1 3.184 1.994 3.991 3.991 0 0 1-1.465 5.463c-.86.497-1.82.622-2.723.455.033-.231.055-.465.055-.705a5.01 5.01 0 0 0-3.064-4.61 3.964 3.964 0 0 1 1.732-2.068 3.993 3.993 0 0 1 2.281-.529zM10 10.998c.255 0 .503.03.744.074-.156 1.074.01 2.203.594 3.213a4.951 4.951 0 0 0 2.404 2.09A3.981 3.981 0 0 1 10 18.998c-2.215 0-4-1.785-4-4s1.785-4 4-4zm1.695.387A3.985 3.985 0 0 1 14 14.998c0 .138-.026.268-.04.402a3.979 3.979 0 0 1-2.265-4.015z" color="#000" font-family="sans-serif" font-weight="400" overflow="visible" style="line-height:normal;text-indent:0;text-align:start;text-decoration-line:none;text-decoration-style:solid;text-decoration-color:#000;text-transform:none;block-progression:tb;white-space:normal;isolation:auto;mix-blend-mode:normal;solid-color:#000;solid-opacity:1" fill="#000000" class="color000000 svgShape"></path>
</svg>
