<svg xmlns="http://www.w3.org/2000/svg" viewBox="0 0 64 64" id="lose-weight">
  <defs>
    <linearGradient id="a" x1="7" x2="57" y1="32" y2="32" gradientUnits="userSpaceOnUse">
      <stop offset="0" stop-color="#9cffac"></stop>
      <stop offset="1" stop-color="#00b59c"></stop>
    </linearGradient>
  </defs>
  <path fill="url(#a)" d="m30.01692,20.08997s0-5.08997,0-5.08992c-.02541-1.31637-1.97731-1.31027-2.00147-.00005v5.08997c-2.51186.42004-4.49329,2.40002-4.9236,4.91003,0,0-7.94584,0-7.94584,0-.58766.01381-1.08893-.56336-.99073-1.15002,1.05076-7.32001,7.43546-12.84998,14.8609-12.84998s13.81014,5.52997,14.8609,12.84998c.04007.29004-.04001.58002-.24017.79999-.19014.23004-.4603.35004-.76057.35004h-7.93583c-.43031-2.51001-2.41175-4.48999-4.9236-4.91003Zm4.01296,33.91003H12.00368c-2.76204,0-5.00368-2.23999-5.00368-5V9c0-2.76001,2.24164-5,5.00368-5,0,0,34.02502,0,34.02502,0,2.76204,0,5.00368,2.23999,5.00368,5,0,0,0,28.01001.00016,28.01018-8.28199-3.67184-18.20585,2.91263-18.01341,11.98982.00453,1.81694.33993,3.39182,1.01075,5Zm-1.01075-28c0,.54999.45034,1,1.00074,1,0,0,8.85649,0,8.85645-.00003,1.77463.04158,3.26529-1.68386,2.98228-3.42977-3.26169-19.30658-30.41991-19.31156-33.68477-.00022-.28411,1.74742,1.2029,3.46787,2.97218,3.43002h8.8665c.55039,0,1.00074-.45001,1.00074-1,0-1.85999,1.28097-3.41003,3.00221-3.85999,0,0,0,3.85999,0,3.85994.02517,1.31441,1.97657,1.31264,2.00147.00004v-3.85999c1.72124.44995,3.00221,2,3.00221,3.85999Zm13.00957,34c-4.27316,0-7.98585-2.44-9.80708-5.99989-4.79857-9.45198,5.34971-19.59507,14.81075-14.8001,10.1485,5.27618,6.60798,20.65477-5.00368,20.79999Zm2.29166-9.71002l-1.29093,1.29999s0-7.58997,0-7.58992c-.02549-1.31705-1.97757-1.30944-2.00147-.00005v7.58997l-1.29093-1.29999c-.3903-.39001-1.03079-.39001-1.42109,0-.39024.39001-.39024,1.03003,0,1.41998,0,0,3.00221,3,3.00221,2.99998.38065.37862,1.04041.37764,1.42109.00002l3.00221-3c.92293-.9343-.48813-2.34103-1.42109-1.41998Z"></path>
</svg>
